<?xml version="1.0" encoding="UTF-8"?>
<svg id="Layer_1" data-name="Layer 1" xmlns="http://www.w3.org/2000/svg" viewBox="0 0 20 20">
  <defs>
    <style>
      .cls-1 {
        fill: #fff;
      }
    </style>
  </defs>
  <path class="cls-1" d="M18,0H2C.9,0,0,.9,0,2v18l4-4h14c1.1,0,2-.9,2-2V2c0-1.11-.9-2-2-2ZM7.28,13.03c-.18-.07-.41-.23-.62-.41l-.93.98-.83-.7c2.06-2.21,4.33-4.93,9.28-4.18,0,0-5.07-1.95-8.52,2.1,0,0-.13-.29-.21-.7-.09.03-.17.07-.26.1-.13.03-.33.03-.52,0l-.12.99-.75-.09c.24-2.23.39-4.86,3.46-6.47,0,0-3.63.92-3.89,4.86,0,0-.81-.53-1.01-1.32-.2-.79.1-2.65,1.82-3.5s4.24-1.59,4.4-2.47c0,0,.18,2.1-.32,4.17.65-.18,1.38-.26,2.21-.12,2.73.47,6.32,1.71,7.22.89,0,0-4.84,8.03-10.41,5.88Z"/>
</svg>